<svg width="75" height="75" viewBox="0 0 75 75" fill="none" xmlns="http://www.w3.org/2000/svg">
<path d="M24 56L37.5 42.68L51 56L56.25 50.82L42.75 37.5L56.25 24.18L51 19L37.5 32.32L24 19L18.75 24.18L32.25 37.5L18.75 50.82L24 56ZM37.5 74.5C32.3125 74.5 27.4375 73.5281 22.875 71.5844C18.3125 69.6406 14.3437 67.005 10.9687 63.6775C7.59375 60.35 4.9225 56.4341 2.955 51.93C0.987504 47.4258 0.00250475 42.6159 4.74683e-06 37.5C-0.00249525 32.3841 0.982504 27.5741 2.955 23.07C4.9275 18.5659 7.59875 14.65 10.9687 11.3225C14.3387 7.99497 18.3075 5.35933 22.875 3.4156C27.4425 1.47187 32.3175 0.5 37.5 0.5C42.6825 0.5 47.5575 1.47187 52.125 3.4156C56.6925 5.35933 60.6612 7.99497 64.0312 11.3225C67.4012 14.65 70.0737 18.5659 72.0487 23.07C74.0237 27.5741 75.0075 32.3841 75 37.5C74.9925 42.6159 74.0075 47.4258 72.045 51.93C70.0825 56.4341 67.4112 60.35 64.0312 63.6775C60.6512 67.005 56.6825 69.6419 52.125 71.5881C47.5675 73.5343 42.6925 74.5049 37.5 74.5ZM37.5 67.1C45.875 67.1 52.9687 64.2325 58.7812 58.4975C64.5937 52.7625 67.5 45.7633 67.5 37.5C67.5 29.2367 64.5937 22.2375 58.7812 16.5025C52.9687 10.7675 45.875 7.9 37.5 7.9C29.125 7.9 22.0312 10.7675 16.2187 16.5025C10.4062 22.2375 7.5 29.2367 7.5 37.5C7.5 45.7633 10.4062 52.7625 16.2187 58.4975C22.0312 64.2325 29.125 67.1 37.5 67.1Z" fill="#FE0505"/>
</svg>
