<svg width="28" height="28" viewBox="0 0 28 28" fill="none" xmlns="http://www.w3.org/2000/svg">
<rect width="28" height="28" rx="14" fill="#EADDFF"/>
<path fill-rule="evenodd" clip-rule="evenodd" d="M18.2002 11.2C18.2002 13.5196 16.3198 15.4 14.0002 15.4C11.6806 15.4 9.80017 13.5196 9.80017 11.2C9.80017 8.8804 11.6806 7 14.0002 7C16.3198 7 18.2002 8.8804 18.2002 11.2ZM16.8002 11.2C16.8002 12.7464 15.5466 14 14.0002 14C12.4538 14 11.2002 12.7464 11.2002 11.2C11.2002 9.6536 12.4538 8.4 14.0002 8.4C15.5466 8.4 16.8002 9.6536 16.8002 11.2Z" fill="#4F378A"/>
<path d="M14.0002 17.5C9.4681 17.5 5.60666 20.1799 4.13574 23.9344C4.49407 24.2902 4.87154 24.6268 5.26647 24.9424C6.36179 21.4954 9.79787 18.9 14.0002 18.9C18.2025 18.9 21.6386 21.4954 22.7339 24.9424C23.1288 24.6268 23.5063 24.2903 23.8646 23.9344C22.3937 20.1799 18.5322 17.5 14.0002 17.5Z" fill="#4F378A"/>
</svg>
