<svg width="30" height="30" viewBox="0 0 30 30" fill="none" xmlns="http://www.w3.org/2000/svg">
<path d="M4.5 30C3.675 30 2.969 29.7065 2.382 29.1195C1.795 28.5325 1.501 27.826 1.5 27V10.0875C1.05 9.8125 0.6875 9.4565 0.4125 9.0195C0.1375 8.5825 0 8.076 0 7.5V3C0 2.175 0.294 1.469 0.882 0.882C1.47 0.295 2.176 0.001 3 0H27C27.825 0 28.5315 0.294 29.1195 0.882C29.7075 1.47 30.001 2.176 30 3V7.5C30 8.075 29.8625 8.5815 29.5875 9.0195C29.3125 9.4575 28.95 9.813 28.5 10.086V27C28.5 27.825 28.2065 28.5315 27.6195 29.1195C27.0325 29.7075 26.326 30.001 25.5 30H4.5ZM4.5 10.5V27H25.5V10.5H4.5ZM3 7.5H27V3H3V7.5ZM12 18H18C18.425 18 18.7815 17.856 19.0695 17.568C19.3575 17.28 19.501 16.924 19.5 16.5C19.499 16.076 19.355 15.72 19.068 15.432C18.781 15.144 18.425 15 18 15H12C11.575 15 11.219 15.144 10.932 15.432C10.645 15.72 10.501 16.076 10.5 16.5C10.499 16.924 10.643 17.2805 10.932 17.5695C11.221 17.8585 11.577 18.002 12 18Z" fill="black"/>
</svg>
