<svg width="24" height="24" viewBox="0 0 24 24" fill="none" xmlns="http://www.w3.org/2000/svg">
<path d="M8.71642 24L8.23881 20.16C7.9801 20.06 7.73652 19.94 7.50806 19.8C7.2796 19.66 7.05552 19.51 6.83582 19.35L3.28358 20.85L0 15.15L3.07463 12.81C3.05473 12.67 3.04478 12.5352 3.04478 12.4056V11.5956C3.04478 11.4652 3.05473 11.33 3.07463 11.19L0 8.85L3.28358 3.15L6.83582 4.65C7.05473 4.49 7.28358 4.34 7.52239 4.2C7.76119 4.06 8 3.94 8.23881 3.84L8.71642 0H15.2836L15.7612 3.84C16.0199 3.94 16.2639 4.06 16.4931 4.2C16.7224 4.34 16.9461 4.49 17.1642 4.65L20.7164 3.15L24 8.85L20.9254 11.19C20.9453 11.33 20.9552 11.4652 20.9552 11.5956V12.4044C20.9552 12.5348 20.9353 12.67 20.8955 12.81L23.9701 15.15L20.6866 20.85L17.1642 19.35C16.9453 19.51 16.7164 19.66 16.4776 19.8C16.2388 19.94 16 20.06 15.7612 20.16L15.2836 24H8.71642ZM10.806 21.6H13.1642L13.5821 18.42C14.199 18.26 14.7713 18.0252 15.2991 17.7156C15.8269 17.406 16.3093 17.0308 16.7463 16.59L19.7015 17.82L20.8657 15.78L18.2985 13.83C18.398 13.55 18.4677 13.2552 18.5075 12.9456C18.5473 12.636 18.5672 12.3208 18.5672 12C18.5672 11.6792 18.5473 11.3644 18.5075 11.0556C18.4677 10.7468 18.398 10.4516 18.2985 10.17L20.8657 8.22L19.7015 6.18L16.7463 7.44C16.3085 6.98 15.8261 6.5952 15.2991 6.2856C14.7721 5.976 14.1998 5.7408 13.5821 5.58L13.194 2.4H10.8358L10.4179 5.58C9.801 5.74 9.22906 5.9752 8.70209 6.2856C8.17513 6.596 7.69234 6.9708 7.25373 7.41L4.29851 6.18L3.13433 8.22L5.70149 10.14C5.60199 10.44 5.53234 10.74 5.49254 11.04C5.45274 11.34 5.43284 11.66 5.43284 12C5.43284 12.32 5.45274 12.63 5.49254 12.93C5.53234 13.23 5.60199 13.53 5.70149 13.83L3.13433 15.78L4.29851 17.82L7.25373 16.56C7.69154 17.02 8.17433 17.4052 8.70209 17.7156C9.22985 18.026 9.80179 18.2608 10.4179 18.42L10.806 21.6ZM12.0597 16.2C13.2139 16.2 14.199 15.79 15.0149 14.97C15.8308 14.15 16.2388 13.16 16.2388 12C16.2388 10.84 15.8308 9.85 15.0149 9.03C14.199 8.21 13.2139 7.8 12.0597 7.8C10.8856 7.8 9.89532 8.21 9.08896 9.03C8.28259 9.85 7.8798 10.84 7.8806 12C7.88139 13.16 8.28458 14.15 9.09015 14.97C9.89572 15.79 10.8856 16.2 12.0597 16.2Z" fill="white"/>
</svg>
