<svg width="36" height="30" viewBox="0 0 36 30" fill="none" xmlns="http://www.w3.org/2000/svg">
<path d="M9.8163 0.245085C9.73791 0.167401 9.64477 0.105764 9.54221 0.0637065C9.43965 0.0216494 9.32969 0 9.21864 0C9.10759 0 8.99764 0.0216494 8.89508 0.0637065C8.79252 0.105764 8.69937 0.167401 8.62099 0.245085L4.14348 4.64131L2.54739 3.10531C2.469 3.02762 2.37586 2.96599 2.2733 2.92393C2.17074 2.88187 2.06078 2.86022 1.94973 2.86022C1.83868 2.86022 1.72872 2.88187 1.62616 2.92393C1.5236 2.96599 1.43046 3.02762 1.35207 3.10531L0.248166 4.1969C0.169506 4.27431 0.107093 4.3663 0.0645073 4.46759C0.0219215 4.56887 0 4.67747 0 4.78714C0 4.89681 0.0219215 5.0054 0.0645073 5.10669C0.107093 5.20797 0.169506 5.29996 0.248166 5.37737L3.59434 8.66882C3.76136 8.82561 3.983 8.91305 4.21344 8.91305C4.44389 8.91305 4.66552 8.82561 4.83255 8.66882L5.92872 7.58417L11.0053 2.57132C11.1635 2.41498 11.2528 2.20336 11.254 1.98236C11.2552 1.76136 11.1681 1.54882 11.0116 1.39084L9.8163 0.245085ZM9.8163 11.2992C9.73791 11.2215 9.64477 11.1599 9.54221 11.1178C9.43965 11.0758 9.32969 11.0541 9.21864 11.0541C9.10759 11.0541 8.99764 11.0758 8.89508 11.1178C8.79252 11.1599 8.69937 11.2215 8.62099 11.2992L4.14348 15.7239L2.54739 14.1893C2.469 14.1116 2.37586 14.05 2.2733 14.0079C2.17074 13.9658 2.06078 13.9442 1.94973 13.9442C1.83868 13.9442 1.72872 13.9658 1.62616 14.0079C1.5236 14.05 1.43046 14.1116 1.35207 14.1893L0.248166 15.2788C0.169506 15.3562 0.107093 15.4482 0.0645073 15.5495C0.0219215 15.6508 0 15.7593 0 15.869C0 15.9787 0.0219215 16.0873 0.0645073 16.1886C0.107093 16.2899 0.169506 16.3818 0.248166 16.4593L3.5859 19.7576C3.75281 19.9144 3.97433 20.0018 4.20465 20.0018C4.43498 20.0018 4.6565 19.9144 4.8234 19.7576L5.92731 18.6681L11.0039 13.6532C11.1614 13.498 11.2505 13.2875 11.2517 13.0677C11.2529 12.8479 11.1661 12.6366 11.0102 12.4797L9.8163 11.2992ZM4.49997 23.3338C2.63739 23.3338 1.08348 24.8267 1.08348 26.6669C1.08348 28.507 2.63879 30 4.49997 30C5.39507 30 6.25352 29.6488 6.88646 29.0238C7.51939 28.3987 7.87497 27.5509 7.87497 26.6669C7.87497 25.7829 7.51939 24.9351 6.88646 24.31C6.25352 23.685 5.39507 23.3338 4.49997 23.3338ZM34.875 24.4448H14.625C14.3266 24.4448 14.0405 24.5619 13.8295 24.7702C13.6185 24.9786 13.5 25.2612 13.5 25.5559V27.7779C13.5 28.0726 13.6185 28.3552 13.8295 28.5636C14.0405 28.7719 14.3266 28.889 14.625 28.889H34.875C35.1734 28.889 35.4595 28.7719 35.6705 28.5636C35.8815 28.3552 36 28.0726 36 27.7779V25.5559C36 25.2612 35.8815 24.9786 35.6705 24.7702C35.4595 24.5619 35.1734 24.4448 34.875 24.4448ZM34.875 2.22412H14.625C14.3266 2.22412 14.0405 2.34117 13.8295 2.54953C13.6185 2.75789 13.5 3.04049 13.5 3.33515V5.55722C13.5 5.85189 13.6185 6.13448 13.8295 6.34284C14.0405 6.5512 14.3266 6.66826 14.625 6.66826H34.875C35.1734 6.66826 35.4595 6.5512 35.6705 6.34284C35.8815 6.13448 36 5.85189 36 5.55722V3.33515C36 3.04049 35.8815 2.75789 35.6705 2.54953C35.4595 2.34117 35.1734 2.22412 34.875 2.22412ZM34.875 13.3345H14.625C14.3266 13.3345 14.0405 13.4515 13.8295 13.6599C13.6185 13.8682 13.5 14.1508 13.5 14.4455V16.6676C13.5 16.9622 13.6185 17.2448 13.8295 17.4532C14.0405 17.6616 14.3266 17.7786 14.625 17.7786H34.875C35.1734 17.7786 35.4595 17.6616 35.6705 17.4532C35.8815 17.2448 36 16.9622 36 16.6676V14.4455C36 14.1508 35.8815 13.8682 35.6705 13.6599C35.4595 13.4515 35.1734 13.3345 34.875 13.3345Z" fill="black"/>
</svg>
