<svg width="39" height="30" viewBox="0 0 39 30" fill="none" xmlns="http://www.w3.org/2000/svg">
<path d="M18.9829 7.78279L6.50051 17.9524V28.9285C6.50051 29.2126 6.61464 29.4852 6.81779 29.6862C7.02094 29.8871 7.29647 30 7.58376 30L15.1706 29.9806C15.4569 29.9792 15.7311 29.8656 15.933 29.6648C16.135 29.464 16.2484 29.1923 16.2484 28.909V22.4992C16.2484 22.215 16.3625 21.9424 16.5657 21.7415C16.7688 21.5405 17.0444 21.4276 17.3317 21.4276H21.6647C21.952 21.4276 22.2275 21.5405 22.4306 21.7415C22.6338 21.9424 22.7479 22.215 22.7479 22.4992V28.9043C22.7475 29.0453 22.7752 29.185 22.8294 29.3154C22.8836 29.4458 22.9634 29.5643 23.064 29.6642C23.1646 29.7641 23.2842 29.8433 23.4158 29.8974C23.5475 29.9514 23.6886 29.9792 23.8312 29.9792L31.4153 30C31.7026 30 31.9781 29.8871 32.1812 29.6862C32.3844 29.4852 32.4985 29.2126 32.4985 28.9285V17.9451L20.0188 7.78279C19.8721 7.6658 19.6893 7.60201 19.5009 7.60201C19.3124 7.60201 19.1297 7.6658 18.9829 7.78279ZM38.7001 14.6949L33.0401 10.0799V0.803661C33.0401 0.590517 32.9545 0.386103 32.8022 0.235387C32.6498 0.0846713 32.4432 0 32.2277 0H28.4363C28.2209 0 28.0142 0.0846713 27.8618 0.235387C27.7095 0.386103 27.6239 0.590517 27.6239 0.803661V5.66648L21.5624 0.733341C20.9807 0.259836 20.2508 0.000946542 19.4975 0.000946542C18.7442 0.000946542 18.0142 0.259836 17.4325 0.733341L0.294846 14.6949C0.212578 14.7622 0.144515 14.8448 0.0945446 14.9381C0.0445743 15.0314 0.0136765 15.1335 0.00361681 15.2387C-0.00644294 15.3438 0.00453249 15.4498 0.035916 15.5507C0.0672995 15.6516 0.118476 15.7454 0.186521 15.8268L1.91295 17.9029C1.98081 17.9845 2.06428 18.0521 2.15858 18.1018C2.25287 18.1514 2.35615 18.1822 2.46249 18.1924C2.56883 18.2025 2.67615 18.1918 2.77831 18.1609C2.88046 18.1299 2.97544 18.0794 3.05781 18.0121L18.9829 5.03695C19.1297 4.91996 19.3124 4.85617 19.5009 4.85617C19.6893 4.85617 19.8721 4.91996 20.0188 5.03695L35.9446 18.0121C36.0268 18.0794 36.1217 18.13 36.2237 18.161C36.3257 18.1921 36.4329 18.2029 36.5391 18.193C36.6454 18.183 36.7486 18.1525 36.8429 18.103C36.9373 18.0536 37.0208 17.9863 37.0888 17.9049L38.8152 15.8288C38.8832 15.747 38.9341 15.6527 38.9652 15.5513C38.9962 15.45 39.0066 15.3436 38.9959 15.2382C38.9852 15.1328 38.9536 15.0306 38.9028 14.9374C38.8521 14.8441 38.7832 14.7617 38.7001 14.6949Z" fill="black"/>
</svg>
